<svg data-v-fde0c5aa="" xmlns="http://www.w3.org/2000/svg" viewBox="0 0 300 300" class="iconAbove"><!----><defs data-v-fde0c5aa=""><!----></defs><rect data-v-fde0c5aa="" fill="#0B173D" x="0" y="0" width="300px" height="300px" class="logo-background-square"></rect><defs data-v-fde0c5aa=""><!----></defs><g data-v-fde0c5aa="" id="60cf4919-f97e-45b0-91ad-c95e37c6f614" fill="#D1A103" transform="matrix(2.4280911052860703,0,0,2.4280911052860703,18.567426166834935,163.72263761659084)"><path d="M3.64 12.63L0.59 12.63L0.59 12.33L0.59 12.33Q1.34 12.33 1.47 12.05L1.47 12.05L1.47 5.01L1.47 5.01Q1.34 4.73 0.59 4.73L0.59 4.73L0.59 4.44L3.64 4.44L3.64 4.73L3.64 4.73Q2.88 4.73 2.76 5.01L2.76 5.01L2.76 12.05L2.76 12.05Q2.88 12.33 3.64 12.33L3.64 12.33L3.64 12.63ZM7.62 12.63L4.59 12.63L4.59 12.33L4.59 12.33Q5.35 12.33 5.47 12.05L5.47 12.05L5.47 7.32L5.47 7.32Q4.61 7.25 4.59 7.25L4.59 7.25L4.59 6.93L4.59 6.93Q4.86 6.93 5.63 6.63L5.63 6.63L5.63 6.63Q6.41 6.33 6.73 6.33L6.73 6.33L6.73 6.96L6.73 6.96Q7.48 6.33 8.29 6.33L8.29 6.33L8.29 6.33Q9.97 6.33 10.44 7.14L10.44 7.14L10.44 7.14Q11.23 6.33 12.19 6.33L12.19 6.33L12.19 6.33Q14.55 6.33 14.55 7.92L14.55 7.92L14.55 12.05L14.55 12.05Q14.67 12.33 15.43 12.33L15.43 12.33L15.43 12.63L12.40 12.63L12.40 12.33L12.40 12.33Q13.16 12.33 13.29 12.05L13.29 12.05L13.29 8.44L13.29 8.44Q13.29 7.53 13.02 7.17L13.02 7.17L13.02 7.17Q12.75 6.80 12.11 6.80L12.11 6.80L12.11 6.80Q11.28 6.80 10.58 7.48L10.58 7.48L10.58 7.48Q10.64 7.66 10.64 7.92L10.64 7.92L10.64 12.05L10.64 12.05Q10.77 12.33 11.52 12.33L11.52 12.33L11.52 12.63L8.50 12.63L8.50 12.33L8.50 12.33Q9.25 12.33 9.38 12.05L9.38 12.05L9.38 8.44L9.38 8.44Q9.38 7.53 9.11 7.17L9.11 7.17L9.11 7.17Q8.85 6.80 8.20 6.80L8.20 6.80L8.20 6.80Q7.41 6.80 6.73 7.42L6.73 7.42L6.73 12.05L6.73 12.05Q6.86 12.33 7.62 12.33L7.62 12.33L7.62 12.63ZM19.01 15.32L15.99 15.32L15.99 15.02L15.99 15.02Q16.74 15.02 16.87 14.74L16.87 14.74L16.87 7.32L16.87 7.32Q16.87 7.32 15.99 7.25L15.99 7.25L15.99 6.93L15.99 6.93Q16.25 6.93 17.03 6.63L17.03 6.63L17.03 6.63Q17.81 6.33 18.13 6.33L18.13 6.33L18.13 6.79L18.13 6.79Q18.80 6.33 19.81 6.33L19.81 6.33L19.81 6.33Q20.27 6.33 20.73 6.49L20.73 6.49L20.73 6.49Q21.18 6.65 21.64 6.99L21.64 6.99L21.64 6.99Q22.09 7.34 22.38 8.01L22.38 8.01L22.38 8.01Q22.67 8.68 22.67 9.58L22.67 9.58L22.67 9.58Q22.67 11.13 21.80 11.95L21.80 11.95L21.80 11.95Q20.93 12.77 19.50 12.77L19.50 12.77L19.50 12.77Q18.69 12.77 18.13 12.46L18.13 12.46L18.13 14.74L18.13 14.74Q18.26 15.02 19.01 15.02L19.01 15.02L19.01 15.32ZM18.13 7.25L18.13 12.01L18.13 12.01Q18.66 12.29 19.42 12.29L19.42 12.29L19.42 12.29Q20.19 12.29 20.76 11.58L20.76 11.58L20.76 11.58Q21.34 10.86 21.34 9.58L21.34 9.58L21.34 9.58Q21.34 8.72 20.84 7.76L20.84 7.76L20.84 7.76Q20.34 6.80 19.67 6.80L19.67 6.80L19.67 6.80Q18.70 6.80 18.13 7.25L18.13 7.25ZM29.58 9.25L25.09 9.25L25.09 9.25Q25.10 10.43 25.77 11.33L25.77 11.33L25.77 11.33Q26.43 12.24 27.26 12.24L27.26 12.24L27.26 12.24Q28.48 12.24 29.22 11.31L29.22 11.31L29.55 11.48L29.55 11.48Q29.15 12.15 28.50 12.46L28.50 12.46L28.50 12.46Q27.85 12.77 26.78 12.77L26.78 12.77L26.78 12.77Q26.25 12.77 25.76 12.61L25.76 12.61L25.76 12.61Q25.27 12.45 24.79 12.07L24.79 12.07L24.79 12.07Q24.32 11.70 24.04 10.98L24.04 10.98L24.04 10.98Q23.76 10.25 23.76 9.24L23.76 9.24L23.76 9.24Q23.76 8.01 24.52 7.17L24.52 7.17L24.52 7.17Q25.28 6.33 26.64 6.33L26.64 6.33L26.64 6.33Q28.13 6.33 28.85 7.16L28.85 7.16L28.85 7.16Q29.58 7.99 29.58 9.25L29.58 9.25ZM25.10 8.82L25.10 8.82L28.21 8.82L28.21 8.82Q28.13 7.81 27.78 7.28L27.78 7.28L27.78 7.28Q27.44 6.75 26.59 6.75L26.59 6.75L26.59 6.75Q26.10 6.75 25.64 7.32L25.64 7.32L25.64 7.32Q25.19 7.90 25.10 8.82ZM33.57 12.63L30.55 12.63L30.55 12.33L30.55 12.33Q31.30 12.33 31.43 12.05L31.43 12.05L31.43 7.32L31.43 7.32Q30.56 7.25 30.55 7.25L30.55 7.25L30.55 6.93L30.55 6.93Q30.81 6.93 31.59 6.63L31.59 6.63L31.59 6.63Q32.37 6.33 32.69 6.33L32.69 6.33L32.69 6.94L32.69 6.94Q33.39 6.33 34.08 6.33L34.08 6.33L34.08 6.33Q34.71 6.33 35.13 6.57L35.13 6.57L35.13 6.57Q35.56 6.80 35.56 7.10L35.56 7.10L35.56 7.10Q35.56 7.60 35 7.60L35 7.60L35 7.60Q34.71 7.60 34.47 7.20L34.47 7.20L34.47 7.20Q34.23 6.80 33.92 6.80L33.92 6.80L33.92 6.80Q33.38 6.80 32.69 7.41L32.69 7.41L32.69 12.05L32.69 12.05Q32.82 12.33 33.57 12.33L33.57 12.33L33.57 12.63ZM39.10 12.63L36.08 12.63L36.08 12.33L36.08 12.33Q36.83 12.33 36.96 12.05L36.96 12.05L36.96 7.32L36.96 7.32Q36.09 7.25 36.08 7.25L36.08 7.25L36.08 6.93L36.08 6.93Q36.34 6.93 37.12 6.63L37.12 6.63L37.12 6.63Q37.90 6.33 38.22 6.33L38.22 6.33L38.22 12.05L38.22 12.05Q38.35 12.33 39.10 12.33L39.10 12.33L39.10 12.63ZM37.55 5.43L37.55 5.43L37.55 5.43Q37.24 5.43 37.01 5.20L37.01 5.20L37.01 5.20Q36.78 4.97 36.78 4.61L36.78 4.61L36.78 4.61Q36.78 4.28 36.98 4.05L36.98 4.05L36.98 4.05Q37.18 3.81 37.51 3.81L37.51 3.81L37.51 3.81Q37.81 3.81 38.05 4.05L38.05 4.05L38.05 4.05Q38.29 4.28 38.29 4.65L38.29 4.65L38.29 4.65Q38.29 4.97 38.08 5.20L38.08 5.20L38.08 5.20Q37.87 5.43 37.55 5.43ZM45.85 6.47L45.85 11.77L45.85 11.77Q45.85 11.77 46.73 11.84L46.73 11.84L46.73 12.17L46.73 12.17Q46.47 12.17 45.69 12.47L45.69 12.47L45.69 12.47Q44.91 12.77 44.59 12.77L44.59 12.77L44.59 12.12L44.59 12.12Q43.83 12.77 42.92 12.77L42.92 12.77L42.92 12.77Q41.62 12.77 41.04 12.29L41.04 12.29L41.04 12.29Q40.46 11.80 40.46 10.78L40.46 10.78L40.46 7.04L40.46 7.04Q40.33 6.76 39.58 6.76L39.58 6.76L39.58 6.47L41.72 6.47L41.72 10.88L41.72 10.88Q41.72 12.29 43.01 12.29L43.01 12.29L43.01 12.29Q43.89 12.29 44.59 11.68L44.59 11.68L44.59 7.04L44.59 7.04Q44.46 6.76 43.71 6.76L43.71 6.76L43.71 6.47L45.85 6.47ZM50.50 12.63L47.47 12.63L47.47 12.33L47.47 12.33Q48.23 12.33 48.36 12.05L48.36 12.05L48.36 7.32L48.36 7.32Q47.49 7.25 47.47 7.25L47.47 7.25L47.47 6.93L47.47 6.93Q47.74 6.93 48.52 6.63L48.52 6.63L48.52 6.63Q49.29 6.33 49.62 6.33L49.62 6.33L49.62 6.96L49.62 6.96Q50.36 6.33 51.17 6.33L51.17 6.33L51.17 6.33Q52.85 6.33 53.33 7.14L53.33 7.14L53.33 7.14Q54.11 6.33 55.08 6.33L55.08 6.33L55.08 6.33Q57.43 6.33 57.43 7.92L57.43 7.92L57.43 12.05L57.43 12.05Q57.55 12.33 58.31 12.33L58.31 12.33L58.31 12.63L55.29 12.63L55.29 12.33L55.29 12.33Q56.04 12.33 56.17 12.05L56.17 12.05L56.17 8.44L56.17 8.44Q56.17 7.53 55.90 7.17L55.90 7.17L55.90 7.17Q55.64 6.80 54.99 6.80L54.99 6.80L54.99 6.80Q54.17 6.80 53.47 7.48L53.47 7.48L53.47 7.48Q53.52 7.66 53.52 7.92L53.52 7.92L53.52 12.05L53.52 12.05Q53.65 12.33 54.40 12.33L54.40 12.33L54.40 12.63L51.38 12.63L51.38 12.33L51.38 12.33Q52.14 12.33 52.26 12.05L52.26 12.05L52.26 8.44L52.26 8.44Q52.26 7.53 52.00 7.17L52.00 7.17L52.00 7.17Q51.73 6.80 51.09 6.80L51.09 6.80L51.09 6.80Q50.29 6.80 49.62 7.42L49.62 7.42L49.62 12.05L49.62 12.05Q49.74 12.33 50.50 12.33L50.50 12.33L50.50 12.63ZM66.44 5.01L66.44 10.22L66.44 10.22Q66.44 10.71 66.33 11.13L66.33 11.13L66.33 11.13Q66.22 11.55 65.98 11.94L65.98 11.94L65.98 11.94Q65.73 12.32 65.25 12.54L65.25 12.54L65.25 12.54Q64.78 12.77 64.12 12.77L64.12 12.77L64.12 12.77Q63.13 12.77 62.57 12.37L62.57 12.37L62.57 12.37Q62.02 11.97 62.02 11.51L62.02 11.51L62.02 11.51Q62.02 11.19 62.19 11.00L62.19 11.00L62.19 11.00Q62.36 10.81 62.62 10.81L62.62 10.81L62.62 10.81Q62.87 10.81 63.06 10.93L63.06 10.93L63.06 10.93Q63.25 11.06 63.25 11.30L63.25 11.30L63.25 11.30Q63.25 11.77 62.90 11.89L62.90 11.89L62.90 11.89Q63.28 12.26 63.98 12.26L63.98 12.26L63.98 12.26Q64.30 12.26 64.53 12.14L64.53 12.14L64.53 12.14Q64.75 12.03 64.88 11.84L64.88 11.84L64.88 11.84Q65.00 11.65 65.06 11.29L65.06 11.29L65.06 11.29Q65.13 10.93 65.14 10.61L65.14 10.61L65.14 10.61Q65.16 10.28 65.16 9.72L65.16 9.72L65.16 5.01L65.16 5.01Q65.03 4.73 64.27 4.73L64.27 4.73L64.27 4.44L67.33 4.44L67.33 4.73L67.33 4.73Q66.57 4.73 66.44 5.01L66.44 5.01ZM73.86 9.25L69.37 9.25L69.37 9.25Q69.38 10.43 70.05 11.33L70.05 11.33L70.05 11.33Q70.71 12.24 71.54 12.24L71.54 12.24L71.54 12.24Q72.76 12.24 73.50 11.31L73.50 11.31L73.84 11.48L73.84 11.48Q73.43 12.15 72.78 12.46L72.78 12.46L72.78 12.46Q72.13 12.77 71.06 12.77L71.06 12.77L71.06 12.77Q70.53 12.77 70.04 12.61L70.04 12.61L70.04 12.61Q69.55 12.45 69.08 12.07L69.08 12.07L69.08 12.07Q68.60 11.70 68.32 10.98L68.32 10.98L68.32 10.98Q68.04 10.25 68.04 9.24L68.04 9.24L68.04 9.24Q68.04 8.01 68.80 7.17L68.80 7.17L68.80 7.17Q69.57 6.33 70.92 6.33L70.92 6.33L70.92 6.33Q72.41 6.33 73.14 7.16L73.14 7.16L73.14 7.16Q73.86 7.99 73.86 9.25L73.86 9.25ZM69.38 8.82L69.38 8.82L72.49 8.82L72.49 8.82Q72.41 7.81 72.06 7.28L72.06 7.28L72.06 7.28Q71.72 6.75 70.87 6.75L70.87 6.75L70.87 6.75Q70.38 6.75 69.92 7.32L69.92 7.32L69.92 7.32Q69.47 7.90 69.38 8.82ZM74.23 6.47L76.94 6.47L76.94 6.76L76.94 6.76Q76.54 6.76 76.36 6.82L76.36 6.82L78.02 10.92L79.28 7.77L78.99 7.04L78.99 7.04Q78.86 6.76 78.11 6.76L78.11 6.76L78.11 6.47L80.82 6.47L80.82 6.76L80.82 6.76Q80.42 6.76 80.23 6.82L80.23 6.82L81.90 10.92L83.50 6.92L83.50 6.92Q83.30 6.76 82.71 6.76L82.71 6.76L82.71 6.47L85.01 6.47L85.01 6.76L85.01 6.76Q84.25 6.76 84.14 7.03L84.14 7.03L81.90 12.63L81.21 12.63L79.62 8.62L78.02 12.63L77.34 12.63L75.11 7.04L75.11 7.04Q74.98 6.76 74.23 6.76L74.23 6.76L74.23 6.47ZM91.17 9.25L86.67 9.25L86.67 9.25Q86.69 10.43 87.35 11.33L87.35 11.33L87.35 11.33Q88.02 12.24 88.84 12.24L88.84 12.24L88.84 12.24Q90.06 12.24 90.80 11.31L90.80 11.31L91.14 11.48L91.14 11.48Q90.73 12.15 90.08 12.46L90.08 12.46L90.08 12.46Q89.43 12.77 88.37 12.77L88.37 12.77L88.37 12.77Q87.84 12.77 87.35 12.61L87.35 12.61L87.35 12.61Q86.86 12.45 86.38 12.07L86.38 12.07L86.38 12.07Q85.90 11.70 85.62 10.98L85.62 10.98L85.62 10.98Q85.34 10.25 85.34 9.24L85.34 9.24L85.34 9.24Q85.34 8.01 86.11 7.17L86.11 7.17L86.11 7.17Q86.87 6.33 88.23 6.33L88.23 6.33L88.23 6.33Q89.71 6.33 90.44 7.16L90.44 7.16L90.44 7.16Q91.17 7.99 91.17 9.25L91.17 9.25ZM86.69 8.82L86.69 8.82L89.80 8.82L89.80 8.82Q89.71 7.81 89.37 7.28L89.37 7.28L89.37 7.28Q89.03 6.75 88.17 6.75L88.17 6.75L88.17 6.75Q87.68 6.75 87.23 7.32L87.23 7.32L87.23 7.32Q86.77 7.90 86.69 8.82ZM95.02 12.63L91.99 12.63L91.99 12.33L91.99 12.33Q92.75 12.33 92.88 12.05L92.88 12.05L92.88 4.80L92.88 4.80Q92.01 4.73 91.99 4.73L91.99 4.73L91.99 4.41L91.99 4.41Q92.26 4.41 93.04 4.11L93.04 4.11L93.04 4.11Q93.81 3.81 94.14 3.81L94.14 3.81L94.14 12.05L94.14 12.05Q94.26 12.33 95.02 12.33L95.02 12.33L95.02 12.63ZM98.77 12.63L95.75 12.63L95.75 12.33L95.75 12.33Q96.50 12.33 96.63 12.05L96.63 12.05L96.63 7.32L96.63 7.32Q95.76 7.25 95.75 7.25L95.75 7.25L95.75 6.93L95.75 6.93Q96.01 6.93 96.79 6.63L96.79 6.63L96.79 6.63Q97.57 6.33 97.89 6.33L97.89 6.33L97.89 6.94L97.89 6.94Q98.59 6.33 99.27 6.33L99.27 6.33L99.27 6.33Q99.90 6.33 100.33 6.57L100.33 6.57L100.33 6.57Q100.76 6.80 100.76 7.10L100.76 7.10L100.76 7.10Q100.76 7.60 100.20 7.60L100.20 7.60L100.20 7.60Q99.90 7.60 99.67 7.20L99.67 7.20L99.67 7.20Q99.43 6.80 99.12 6.80L99.12 6.80L99.12 6.80Q98.57 6.80 97.89 7.41L97.89 7.41L97.89 12.05L97.89 12.05Q98.01 12.33 98.77 12.33L98.77 12.33L98.77 12.63ZM100.77 6.47L103.49 6.47L103.49 6.76L103.49 6.76Q103.08 6.76 102.90 6.82L102.90 6.82L104.57 10.92L106.16 6.92L106.16 6.92Q105.97 6.76 105.38 6.76L105.38 6.76L105.38 6.47L107.67 6.47L107.67 6.76L107.67 6.76Q106.92 6.76 106.81 7.01L106.81 7.01L103.99 14.06L103.99 14.06Q103.73 14.71 103.31 15.02L103.31 15.02L103.31 15.02Q102.90 15.32 102.52 15.32L102.52 15.32L102.52 15.32Q102.17 15.32 101.97 15.13L101.97 15.13L101.97 15.13Q101.77 14.95 101.77 14.70L101.77 14.70L101.77 14.70Q101.77 14.49 101.91 14.32L101.91 14.32L101.91 14.32Q102.06 14.15 102.31 14.15L102.31 14.15L102.31 14.15Q102.47 14.15 102.63 14.27L102.63 14.27L102.63 14.27Q102.80 14.39 102.89 14.39L102.89 14.39L102.89 14.39Q103.18 14.39 103.28 14.14L103.28 14.14L103.88 12.63L101.65 7.04L101.65 7.04Q101.53 6.76 100.77 6.76L100.77 6.76L100.77 6.47Z"></path></g><defs data-v-fde0c5aa=""><!----></defs><g data-v-fde0c5aa="" id="c24b4848-19e4-4288-9a46-2d697a3ee6ee" stroke="none" fill="#D1A103" transform="matrix(1.1487695026776816,0,0,1.1487695026776816,92.5618305251156,69.58792381933587)"><path d="M91.016 54.432c-.002-.052 0-.104-.006-.155-.007-.051-.021-.099-.033-.147-.009-.042-.015-.082-.029-.123a1.542 1.542 0 0 0-.096-.217c-.008-.012-.01-.025-.017-.038L84.849 43.31a1.45 1.45 0 0 0-.36-.415l-.006-.003a1.405 1.405 0 0 0-.492-.245l-25.359-6.88.966-3.281c.002-.008 0-.015.002-.023.041-.144.054-.293.046-.446l-.003-.072a1.37 1.37 0 0 0-.078-.356c-.007-.022-.021-.041-.029-.062l-.033-.067a1.415 1.415 0 0 0-.251-.363l-.03-.026a1.39 1.39 0 0 0-.388-.269l-.009-.007L47.874 25.8a1.416 1.416 0 0 0-.266-.091c-.05-.011-.1-.014-.15-.02-.042-.006-.085-.015-.127-.017-.037-.001-.072.005-.109.007-.057.003-.113.003-.168.012h-.002a1.51 1.51 0 0 0-.262.069L14.896 37.671c-.003.001-.005.005-.009.006a1.44 1.44 0 0 0-.458.282c-.003.004-.005.009-.011.013a1.407 1.407 0 0 0-.315.439L9.11 49.358c-.07.15-.109.312-.122.478l-.006.032c-.007.145.011.293.05.44.006.024.011.048.019.072.007.022.009.045.019.067.033.089.087.162.135.24.024.041.041.085.07.124.096.127.212.235.344.321.005.004.009.011.015.015l35.829 22.958c.017.011.035.014.052.024a1.517 1.517 0 0 0 .253.114c.032.011.061.024.094.033a1.455 1.455 0 0 0 .363.052h.006c.052 0 .104-.003.155-.008.076-.01.147-.028.218-.048.017-.004.031-.005.048-.01l.054-.021c.005-.003.013-.001.019-.004.022-.008.041-.022.062-.032.066-.028.129-.06.19-.097.015-.01.033-.018.048-.027l.006-.003c.018-.013.033-.03.052-.044.041-.031.079-.063.116-.099.019-.019.041-.034.059-.054.013-.014.024-.03.037-.045a2.2 2.2 0 0 0 .081-.104c.022-.031.044-.062.064-.094l.028-.049c.017-.031.03-.062.044-.094a1.54 1.54 0 0 0 .052-.127c.005-.017.015-.032.02-.05 0-.003.004-.006.004-.01l3.245-11.031 6.213 10.84c.004.009.014.013.017.021.017.026.031.055.05.08.03.044.065.083.101.123.023.028.048.059.073.085.033.03.068.058.102.085l.048.038.006.003c.017.013.031.029.05.041.002.002.006.002.008.003.102.068.216.119.334.158.021.006.041.016.061.021l.012.006c.013.003.023.002.037.005.106.025.218.044.334.044l.081-.002c.068-.004.135-.018.201-.032.022-.004.045-.004.066-.01.104-.026.203-.064.296-.112.013-.007.025-.016.039-.021.007-.005.015-.006.021-.01L90.31 55.686c.038-.021.069-.051.104-.075.024-.017.047-.031.068-.049.107-.085.2-.181.275-.288.013-.017.022-.036.033-.055.13-.201.211-.431.228-.669.003-.039-.002-.078-.002-.118zm-11.075-9.945l-6.239 3.577-3.577-6.24 9.816 2.663zm-9.7 3.247l-9.817-2.664 6.241-3.577 3.576 6.241zm-54.146-6.855l6.544 2.985-9.53 3.56 2.986-6.545zm38.435-8.925L45 35.513l2.986-6.544 6.544 2.985zm-13.446 8.05L44.18 67.43 28.542 44.688l12.542-4.684zm-12.029 1.465l2.985-6.544 6.546 2.985-9.531 3.559zm12.532-5.308l-6.543-2.985 9.53-3.56-2.987 6.545zm-15.945 5.955l-6.545-2.985 9.53-3.56-2.985 6.545zm.159 3.596l15.276 22.214-27.525-17.639 12.249-4.575zm21.046 20.059l-3.025-26.79 12.252-4.576-9.227 31.366zm5.094-7.262l3.453-11.743 1.123 19.729-4.576-7.986zm5.332-14.902l-.628-1.093 1.186-4.025 5.684 1.542-6.242 3.576zm1.003 3.821l12.63 3.426-11.455 17.231-1.175-20.657zm4.509 20.767l11.006-16.558 12.136 3.292-23.142 13.266zm14.069-18.667l6.238-3.577 3.578 6.24-9.816-2.663z"></path></g><!----></svg>